# xmcd
#
# Track frame offsets:
# 150
# 20500
# 37847
# 59002
# 85797
# 108030
# 123494
# 148948
# 168991
# 188149
#
# Disc length: 2831 seconds
#
# Revision: 0
# Processed by: cddbd v1.5.2PL0 Copyright (c) Steve Scherf et al.
# Submitted via: Audion 3.0.2 (http://www.panic.com/audion/)
#
DISCID=810b0d0a
DTITLE=Sergio Marino - Prima che sia tardi
DYEAR=1900
DGENRE=
TTITLE0=Sfugge il senso
TTITLE1=Nuvole di fumo
TTITLE2=Tempo che verrà
TTITLE3=Sud
TTITLE4=§Il mistero della notte
TTITLE5=La canzone con la lunas
TTITLE6=Dream song
TTITLE7=Piena come la luna
TTITLE8=Incubo terrestre
TTITLE9=Quanta luce
EXTD=
EXTT0=
EXTT1=
EXTT2=
EXTT3=
EXTT4=
EXTT5=
EXTT6=
EXTT7=
EXTT8=
EXTT9=
PLAYORDER=
